<?xml version="1.0" encoding="UTF-8" standalone="no"?>
<svg
   id="Layer_1"
   data-name="Layer 1"
   viewBox="0 0 64 64"
   version="1.1"
   sodipodi:docname="pardus-update-symbolic.svg"
   inkscape:version="1.3 (0e150ed6c4, 2023-07-21)"
   xmlns:inkscape="http://www.inkscape.org/namespaces/inkscape"
   xmlns:sodipodi="http://sodipodi.sourceforge.net/DTD/sodipodi-0.dtd"
   xmlns="http://www.w3.org/2000/svg"
   xmlns:svg="http://www.w3.org/2000/svg"
   xmlns:rdf="http://www.w3.org/1999/02/22-rdf-syntax-ns#"
   xmlns:cc="http://creativecommons.org/ns#"
   xmlns:dc="http://purl.org/dc/elements/1.1/">
  <metadata
     id="metadata11">
    <rdf:RDF>
      <cc:Work
         rdf:about="">
        <dc:format>image/svg+xml</dc:format>
        <dc:type
           rdf:resource="http://purl.org/dc/dcmitype/StillImage" />
      </cc:Work>
    </rdf:RDF>
  </metadata>
  <sodipodi:namedview
     id="namedview4"
     pagecolor="#ffffff"
     bordercolor="#000000"
     borderopacity="0.25"
     inkscape:showpageshadow="2"
     inkscape:pageopacity="0.0"
     inkscape:pagecheckerboard="0"
     inkscape:deskcolor="#d1d1d1"
     inkscape:zoom="8.0000001"
     inkscape:cx="50.6875"
     inkscape:cy="38.0625"
     inkscape:window-width="1920"
     inkscape:window-height="1137"
     inkscape:window-x="0"
     inkscape:window-y="0"
     inkscape:window-maximized="1"
     inkscape:current-layer="Layer_1"
     inkscape:document-rotation="0"
     showgrid="false" />
  <defs
     id="defs1">
    <style
       id="style1">.cls-1{fill:#2e3436;}.cls-2{fill:#929495;}</style>
  </defs>
  <path
     class="cls-1"
     d="M54.7,50.6H9.3a6.1,6.1,0,0,1-6.1-6.2v-33A6.1,6.1,0,0,1,9.3,5.2H24.8a1.9,1.9,0,0,1,1.9,1.9,1.9,1.9,0,0,1-1.9,2H9.3a2.2,2.2,0,0,0-2.2,2.3v33a2.2,2.2,0,0,0,2.2,2.2H54.7a2.2,2.2,0,0,0,2.2-2.2V34.9a2,2,0,0,1,2-2,1.9,1.9,0,0,1,1.9,2v9.5A6.1,6.1,0,0,1,54.7,50.6Z"
     id="path1" />
  <path
     class="cls-1"
     d="M45.3,58.7H18.7a1.9,1.9,0,0,1-1.9-2,1.9,1.9,0,0,1,1.9-1.9H45.3a1.9,1.9,0,0,1,1.9,1.9A1.9,1.9,0,0,1,45.3,58.7Z"
     id="path2" />
  <rect
     class="cls-2"
     x="10.5"
     y="12.8"
     width="43.3"
     height="30.35"
     rx="2"
     id="rect2"
     style="fill:#b5b5b5;fill-opacity:1;opacity:0.5" />
  <g
     id="g8">
    <path
       class="cls-1"
       d="M 57.593473,11.551167 38.380809,34.721128 a 1.9,2.1499567 39.665717 0 1 -2.911896,0.378382 1.9,2.1499567 39.665717 0 1 -0.09025,-2.867781 L 54.591324,9.0617681 a 1.9,2.1499567 39.665717 0 1 2.834919,-0.442214 1.9,2.1499567 39.665717 0 1 0.16723,2.9316129 z"
       id="path10"
       style="stroke-width:1.06375" />
    <path
       class="cls-1"
       d="M 35.042307,34.753363 23.990099,22.334194 a 1.1874924,1.9 48.333111 0 1 0.704601,-2.216681 1.1874924,1.9 48.333111 0 1 2.208787,-0.376034 l 11.052208,12.419169 a 1.1874924,1.9 48.333111 0 1 -0.629899,2.150202 1.1874924,1.9 48.333111 0 1 -2.283489,0.442513 z"
       id="path9"
       style="stroke-width:0.790567" />
  </g>
</svg>
