<?xml version="1.0" encoding="UTF-8" standalone="no"?>
<svg
   xmlns:dc="http://purl.org/dc/elements/1.1/"
   xmlns:cc="http://creativecommons.org/ns#"
   xmlns:rdf="http://www.w3.org/1999/02/22-rdf-syntax-ns#"
   xmlns:svg="http://www.w3.org/2000/svg"
   xmlns="http://www.w3.org/2000/svg"
   xmlns:sodipodi="http://sodipodi.sourceforge.net/DTD/sodipodi-0.dtd"
   xmlns:inkscape="http://www.inkscape.org/namespaces/inkscape"
   id="Layer_1"
   data-name="Layer 1"
   viewBox="0 0 64 64"
   version="1.1"
   sodipodi:docname="pardus-update-symbolic.svg"
   inkscape:version="1.0.2 (e86c870879, 2021-01-15)">
  <metadata
     id="metadata11">
    <rdf:RDF>
      <cc:Work
         rdf:about="">
        <dc:format>image/svg+xml</dc:format>
        <dc:type
           rdf:resource="http://purl.org/dc/dcmitype/StillImage" />
      </cc:Work>
    </rdf:RDF>
  </metadata>
  <sodipodi:namedview
     id="namedview4"
     pagecolor="#ffffff"
     bordercolor="#000000"
     borderopacity="0.25"
     inkscape:showpageshadow="2"
     inkscape:pageopacity="0.0"
     inkscape:pagecheckerboard="0"
     inkscape:deskcolor="#d1d1d1"
     inkscape:zoom="7.0234375"
     inkscape:cx="-0.83976883"
     inkscape:cy="16.905999"
     inkscape:window-width="1920"
     inkscape:window-height="1011"
     inkscape:window-x="0"
     inkscape:window-y="0"
     inkscape:window-maximized="1"
     inkscape:current-layer="Layer_1"
     inkscape:document-rotation="0"
     showgrid="false" />
  <defs
     id="defs1">
    <style
       id="style1">.cls-1{fill:#2e3436;}.cls-2{fill:#929495;}</style>
  </defs>
  <path
     class="cls-1"
     d="M54.7,50.6H9.3a6.1,6.1,0,0,1-6.1-6.2v-33A6.1,6.1,0,0,1,9.3,5.2H24.8a1.9,1.9,0,0,1,1.9,1.9,1.9,1.9,0,0,1-1.9,2H9.3a2.2,2.2,0,0,0-2.2,2.3v33a2.2,2.2,0,0,0,2.2,2.2H54.7a2.2,2.2,0,0,0,2.2-2.2V34.9a2,2,0,0,1,2-2,1.9,1.9,0,0,1,1.9,2v9.5A6.1,6.1,0,0,1,54.7,50.6Z"
     id="path1" />
  <path
     class="cls-1"
     d="M45.3,58.7H18.7a1.9,1.9,0,0,1-1.9-2,1.9,1.9,0,0,1,1.9-1.9H45.3a1.9,1.9,0,0,1,1.9,1.9A1.9,1.9,0,0,1,45.3,58.7Z"
     id="path2" />
  <rect
     class="cls-2"
     x="10.5"
     y="12.8"
     width="43.3"
     height="30.35"
     rx="2"
     id="rect2"
     style="fill:#b5b5b5;fill-opacity:1;opacity:0.5" />
  <path
     class="cls-1"
     d="M43.8,41.5a2,2,0,0,1-2-2V8a2,2,0,0,1,4,0V39.5A2,2,0,0,1,43.8,41.5Z"
     id="path3" />
  <path
     class="cls-1"
     d="M58.9,24.2a2,2,0,0,1-1.4-.6L43.8,9.9,30.1,23.6a1.9,1.9,0,0,1-2.8,0,2.1,2.1,0,0,1,0-2.8l15.1-15a2,2,0,0,1,1.4-.6h0a2,2,0,0,1,1.4.6l15.1,15a2.1,2.1,0,0,1,0,2.8A2,2,0,0,1,58.9,24.2Z"
     id="path4" />
</svg>
