<svg width="64" height="64" viewBox="0 0 64 64" fill="none" xmlns="http://www.w3.org/2000/svg">
<rect x="5" y="9" width="54" height="50" rx="8" fill="url(#paint0_linear_2689_60595)"/>
<rect x="5" y="5" width="54" height="50" rx="8" fill="#7F8797"/>
<rect x="9.49988" y="9.5" width="45" height="28" rx="3" fill="#01011A"/>
<rect width="45" height="12" rx="5" transform="matrix(1 0 0 -1 9.49988 51)" fill="#01011A"/>
<rect x="5.7" y="5.7" width="52.6" height="48.6" rx="7.3" stroke="url(#paint1_linear_2689_60595)" stroke-width="1.4" style="mix-blend-mode:soft-light"/>
<rect x="11.4999" y="41.5001" width="20" height="7" rx="2.5" fill="#004F78"/>
<g filter="url(#filter0_f_2689_60595)">
<rect x="11.4999" y="41" width="20" height="5" rx="2.5" fill="#00E1FF"/>
</g>
<g filter="url(#filter1_f_2689_60595)">
<rect x="11.4999" y="41" width="20" height="5" rx="2.5" fill="#00E1FF"/>
</g>
<rect x="32.4999" y="41.5001" width="20" height="7" rx="2.5" fill="#004F78"/>
<rect x="32.4999" y="43.5" width="20" height="5" rx="2.5" fill="#171751"/>
<path d="M26.5 23.7456H20V20.7982L32 9.5L44 20.7982V23.7456H37.5V37.5H26.5V23.7456Z" fill="#004F78"/>
<path d="M20 20.75L32 7L44 20.75H37.5V34.5H26.5V20.75H20Z" fill="url(#paint2_linear_2689_60595)"/>
<defs>
<filter id="filter0_f_2689_60595" x="7.49988" y="37" width="28" height="13" filterUnits="userSpaceOnUse" color-interpolation-filters="sRGB">
<feFlood flood-opacity="0" result="BackgroundImageFix"/>
<feBlend mode="normal" in="SourceGraphic" in2="BackgroundImageFix" result="shape"/>
<feGaussianBlur stdDeviation="2" result="effect1_foregroundBlur_2689_60595"/>
</filter>
<filter id="filter1_f_2689_60595" x="7.49988" y="37" width="28" height="13" filterUnits="userSpaceOnUse" color-interpolation-filters="sRGB">
<feFlood flood-opacity="0" result="BackgroundImageFix"/>
<feBlend mode="normal" in="SourceGraphic" in2="BackgroundImageFix" result="shape"/>
<feGaussianBlur stdDeviation="2" result="effect1_foregroundBlur_2689_60595"/>
</filter>
<linearGradient id="paint0_linear_2689_60595" x1="5.13334" y1="58.1673" x2="58.6414" y2="58.1673" gradientUnits="userSpaceOnUse">
<stop stop-color="#4C5565"/>
<stop offset="0.0414257" stop-color="#6B768A"/>
<stop offset="0.0815191" stop-color="#4C5565"/>
<stop offset="0.899024" stop-color="#4C5565"/>
<stop offset="0.952865" stop-color="#6B768A"/>
<stop offset="1" stop-color="#4C5565"/>
</linearGradient>
<linearGradient id="paint1_linear_2689_60595" x1="32" y1="1" x2="32" y2="61" gradientUnits="userSpaceOnUse">
<stop stop-color="white" stop-opacity="0.9"/>
<stop offset="1" stop-color="white" stop-opacity="0.1"/>
</linearGradient>
<linearGradient id="paint2_linear_2689_60595" x1="32" y1="6.50893" x2="32" y2="34.5" gradientUnits="userSpaceOnUse">
<stop stop-color="#90EBFF"/>
<stop offset="1" stop-color="#1BCCF4"/>
</linearGradient>
</defs>
</svg>
