<?xml version="1.0" encoding="UTF-8" standalone="no"?>
<!-- Created with Inkscape (http://www.inkscape.org/) -->

<svg
   width="120"
   height="101.871"
   viewBox="0 0 31.749999 26.953369"
   version="1.1"
   id="svg1"
   inkscape:version="1.2.2 (b0a8486541, 2022-12-01)"
   sodipodi:docname="cant-connect-repo.svg"
   xml:space="preserve"
   xmlns:inkscape="http://www.inkscape.org/namespaces/inkscape"
   xmlns:sodipodi="http://sodipodi.sourceforge.net/DTD/sodipodi-0.dtd"
   xmlns="http://www.w3.org/2000/svg"
   xmlns:svg="http://www.w3.org/2000/svg"
   xmlns:ns2="http://ns.adobe.com/AdobeIllustrator/10.0/"><sodipodi:namedview
     id="namedview1"
     pagecolor="#ffffff"
     bordercolor="#000000"
     borderopacity="0.25"
     inkscape:showpageshadow="2"
     inkscape:pageopacity="0.0"
     inkscape:pagecheckerboard="0"
     inkscape:deskcolor="#d1d1d1"
     inkscape:document-units="px"
     inkscape:zoom="4.6665079"
     inkscape:cx="76.181163"
     inkscape:cy="55.501888"
     inkscape:window-width="1920"
     inkscape:window-height="1128"
     inkscape:window-x="0"
     inkscape:window-y="0"
     inkscape:window-maximized="1"
     inkscape:current-layer="layer1"
     showgrid="false" /><defs
     id="defs1" /><g
     inkscape:label="Layer 1"
     inkscape:groupmode="layer"
     id="layer1"><g
       id="g5771"
       transform="matrix(1.4892372,0,0,1.4892372,-4.8521787,-4.3054771)"><g
         id="g329"
         transform="matrix(0.58842287,0,0,0.58842287,-8.6083332,5.8235306)"
         style="fill:#c9e0ed;fill-opacity:1"><path
           style="fill:#c9e0ed;fill-opacity:1;stroke:#dddddd;stroke-width:0.773823;stroke-dasharray:none;stroke-opacity:1"
           d="m 40.809103,13.977984 c -1.981146,-0.191671 -3.206319,-2.223895 -2.44856,-4.061481 0.404346,-0.9805333 1.335021,-1.6745122 2.408535,-1.7959675 0.186189,-0.021058 0.201321,-0.028808 0.18278,-0.093437 -0.138366,-0.4823918 -0.163702,-0.6561553 -0.163547,-1.1216937 0,-0.5433571 0.04365,-0.7903257 0.223496,-1.269047 0.173867,-0.4628915 0.393965,-0.8010813 0.772499,-1.1869729 0.492947,-0.5025211 0.97791,-0.7883151 1.648421,-0.9714448 0.285542,-0.077987 0.38063,-0.087544 0.87116,-0.087544 0.495457,0 0.584027,0.00914 0.883845,0.090834 0.405357,0.1105096 0.925366,0.3592475 1.220979,0.5840469 0.460587,0.3502542 0.882801,0.8718224 1.105709,1.3658838 0.05527,0.1225374 0.104994,0.227651 0.110468,0.2335808 0.0059,0.00585 0.131973,-0.027785 0.281122,-0.074879 1.433807,-0.4529402 2.919764,0.3139953 3.35715,1.7326917 0.06427,0.2083992 0.08067,0.2329666 0.152201,0.2276948 0.04409,-0.00293 0.215331,-0.015939 0.380524,-0.028223 0.68819,-0.051036 1.473207,0.1772292 2.069055,0.601683 0.270775,0.1928836 0.642212,0.5833012 0.825239,0.8674133 0.965317,1.4984376 0.551217,3.4799916 -0.933278,4.4658556 -0.444393,0.295124 -0.967971,0.471088 -1.556837,0.52322 -0.44489,0.03941 -10.982123,0.03729 -11.390961,-0.0022 z"
           id="path288" /><path
           style="fill:#c9e0ed;fill-opacity:1;stroke:#2f3536;stroke-width:0.44495;stroke-dasharray:none;stroke-opacity:1"
           d="m 40.809103,13.977984 c -1.981146,-0.191671 -3.206319,-2.223895 -2.44856,-4.061481 0.404346,-0.9805333 1.335021,-1.6745122 2.408535,-1.7959675 0.186189,-0.021058 0.201321,-0.028808 0.18278,-0.093437 -0.138366,-0.4823918 -0.163702,-0.6561553 -0.163547,-1.1216937 0,-0.5433571 0.04365,-0.7903257 0.223496,-1.269047 0.173867,-0.4628915 0.393965,-0.8010813 0.772499,-1.1869729 0.492947,-0.5025211 0.97791,-0.7883151 1.648421,-0.9714448 0.285542,-0.077987 0.38063,-0.087544 0.87116,-0.087544 0.495457,0 0.584027,0.00914 0.883845,0.090834 0.405357,0.1105096 0.925366,0.3592475 1.220979,0.5840469 0.460587,0.3502542 0.882801,0.8718224 1.105709,1.3658838 0.05527,0.1225374 0.104994,0.227651 0.110468,0.2335808 0.0059,0.00585 0.131973,-0.027785 0.281122,-0.074879 1.433807,-0.4529402 2.919764,0.3139953 3.35715,1.7326917 0.06427,0.2083992 0.08067,0.2329666 0.152201,0.2276948 0.04409,-0.00293 0.215331,-0.015939 0.380524,-0.028223 0.68819,-0.051036 1.473207,0.1772292 2.069055,0.601683 0.270775,0.1928836 0.642212,0.5833012 0.825239,0.8674133 0.965317,1.4984376 0.551217,3.4799916 -0.933278,4.4658556 -0.444393,0.295124 -0.967971,0.471088 -1.556837,0.52322 -0.44489,0.03941 -10.982123,0.03729 -11.390961,-0.0022 z"
           id="path289" /></g><g
         id="g325"
         transform="matrix(0.72799266,0,0,0.72799266,-26.165298,3.0748785)"><path
           style="fill:#2f3536;fill-opacity:1;stroke:#dddddd;stroke-width:0.344352;stroke-dasharray:none;stroke-opacity:1"
           d="m 45.748694,17.769178 c -2.2297,-1.117878 -3.811221,-3.313117 -4.385415,-6.087161 -0.09739,-0.470532 -0.145637,-0.95647 -0.109321,-1.101177 0.03999,-0.159323 0.23271,-0.338577 0.530658,-0.493586 0.190661,-0.099198 0.365375,-0.2278264 0.522488,-0.3846778 0.377242,-0.3765983 0.556789,-0.7354439 0.656308,-1.3117111 0.06018,-0.3482873 0.126085,-0.4594404 0.323254,-0.5449292 0.138294,-0.059956 0.343343,-0.065294 2.93847,-0.076956 2.77174,-0.01243 2.790456,-0.012064 2.888426,0.061053 0.170107,0.1269317 0.225604,0.2379458 0.282082,0.5642541 0.129876,0.7504402 0.561159,1.3272193 1.252473,1.675002 0.438875,0.220785 0.543804,0.424059 0.47829,0.926543 -0.317903,2.438318 -1.472106,4.613509 -3.158868,5.953092 -0.547143,0.434537 -1.547456,1.03179 -1.728098,1.03179 -0.0378,0 -0.258666,-0.09521 -0.490747,-0.211558 z"
           id="path287" /><path
           style="fill:#2f3536;fill-opacity:1;stroke-width:0.731174"
           d="m 45.748694,17.769178 c -2.2297,-1.117878 -3.811221,-3.313117 -4.385415,-6.087161 -0.09739,-0.470532 -0.145637,-0.95647 -0.109321,-1.101177 0.03999,-0.159323 0.23271,-0.338577 0.530658,-0.493586 0.190661,-0.099198 0.365375,-0.2278264 0.522488,-0.3846778 0.377242,-0.3765983 0.556789,-0.7354439 0.656308,-1.3117111 0.06018,-0.3482873 0.126085,-0.4594404 0.323254,-0.5449292 0.138294,-0.059956 0.343343,-0.065294 2.93847,-0.076956 2.77174,-0.01243 2.790456,-0.012064 2.888426,0.061053 0.170107,0.1269317 0.225604,0.2379458 0.282082,0.5642541 0.129876,0.7504402 0.561159,1.3272193 1.252473,1.675002 0.438875,0.220785 0.543804,0.424059 0.47829,0.926543 -0.317903,2.438318 -1.472106,4.613509 -3.158868,5.953092 -0.547143,0.434537 -1.547456,1.03179 -1.728098,1.03179 -0.0378,0 -0.258666,-0.09521 -0.490747,-0.211558 z"
           id="path290" /><path
           style="fill:#ebf3f8;fill-opacity:1;stroke-width:0.731174"
           d="m 46.667388,17.155371 c 0.991338,-0.562615 1.846612,-1.36592 2.502849,-2.350759 0.66388,-0.996327 1.184322,-2.401314 1.368197,-3.693583 0.02793,-0.196276 0.05111,-0.374734 0.05141,-0.396574 0,-0.02186 -0.100686,-0.0896 -0.22454,-0.150571 -0.77287,-0.380481 -1.329908,-1.10571 -1.506698,-1.9616293 -0.031,-0.1500002 -0.06215,-0.2785626 -0.06931,-0.2857061 -0.0073,-0.00731 -1.194641,-0.00146 -2.63888,0.013161 l -2.625896,0.026176 v 0.090563 c 0,0.1604708 -0.112203,0.5519339 -0.235334,0.8209912 -0.252779,0.5524091 -0.670408,1.0044062 -1.205548,1.3047502 l -0.302369,0.169706 0.01843,0.131026 c 0.15954,1.134007 0.436995,2.062817 0.896157,2.999976 0.592249,1.208814 1.479346,2.236976 2.558149,2.964947 0.300736,0.202938 0.907311,0.534978 0.978602,0.535695 0.0272,3.09e-4 0.222825,-0.09791 0.434753,-0.21819 z"
           id="path291" /><g
           id="g320"
           transform="matrix(0.00543098,0,0,0.00543098,43.52924,9.7405241)"
           style="fill:#2f3536;fill-opacity:1;stroke-width:2.22631"><rect
             ry="22.263083"
             y="595.36218"
             x="864"
             height="60"
             width="20"
             id="rect291"
             style="fill:#2f3536;fill-opacity:1;stroke:none;stroke-width:2.22631"
             rx="22.263083" /><rect
             y="28.361843"
             x="0"
             height="1024"
             width="1024"
             id="rect292"
             style="opacity:0;fill:#2f3536;fill-opacity:1;stroke:none;stroke-width:35.6206" /><path
             style="fill:#2f3536;fill-opacity:1;stroke-width:11.5754"
             id="path292"
             d="m 1023.4067,168.60416 c -4.877,-14.54248 -20.2149,-40.64305 -33.98274,-58.01396 -13.79898,-17.391717 -36.26003,-37.975809 -49.90303,-45.743587 -13.65341,-7.798974 -76.0712,9.259982 -107.64144,23.698482 l -23.04337,10.518216 c -31.57025,14.448899 -57.84239,26.480119 -58.37272,26.729679 -0.51473,0.27037 -4.22705,0 -7.10747,-1.19064 -2.89082,-1.24263 -38.0174,-9.8891 -71.83895,-17.79726 L 610.96575,92.657754 C 577.1338,84.749594 538.14413,77.215786 524.29315,75.910757 510.43178,74.59533 451.32075,84.494828 417.4992,92.257407 l -64.81987,14.896043 c -33.84235,7.75738 -63.884,14.81805 -66.72282,15.68113 -2.87003,0.84229 -10.85617,3.75391 -11.3969,3.46275 -0.53553,-0.30676 -27.82154,-12.79032 -59.38139,-27.239218 L 192.16085,88.539896 C 160.5646,74.101395 121.60093,61.331875 105.54544,60.15163 89.489953,58.971386 48.39456,93.193284 34.611173,110.585 20.791391,127.95071 5.4950033,154.07727 0.59204829,168.61456 -4.3109067,183.15705 22.283595,240.44831 41.718638,269.22653 l 39.722774,58.91864 c 19.403848,28.77822 30.104038,62.04864 23.729678,73.90828 -6.358763,11.90643 -15.05202,33.05205 -19.336256,47.01222 -4.289436,13.98616 0.665513,75.29649 6.452351,109.53399 l 12.410765,73.07638 c 5.79724,34.2323 16.68981,73.69511 24.19762,87.69687 7.52861,14.01215 67.07637,38.7453 100.79394,47.0954 l 15.08321,3.73831 c 33.68117,8.3553 77.88056,38.24097 98.18389,66.40046 l 27.22882,37.67425 c 20.29293,28.16989 46.78344,59.08502 58.85625,68.71416 12.02602,9.62393 62.91693,17.50089 82.97069,17.50089 20.09016,0 48.6344,-3.38995 63.49924,-7.5286 14.84925,-4.13346 58.02437,-50.51136 78.3173,-78.68645 l 26.78168,-37.08672 c 20.31373,-28.1335 64.46632,-58.09716 98.15788,-66.55645 l 15.70194,-3.94628 c 33.67077,-8.45929 72.1769,-22.38825 85.54435,-30.95153 13.37784,-8.57367 33.51999,-69.83721 39.33282,-104.06951 l 12.38477,-73.06078 c 5.78164,-34.2531 10.21146,-74.19944 9.83711,-88.83552 -0.36915,-14.59968 -16.35185,-55.81985 -22.72101,-67.72629 -6.35357,-11.86484 4.33623,-45.13006 23.73487,-73.90827 l 39.72278,-58.91865 c 19.4142,-28.76782 46.0087,-86.05908 41.1006,-100.61717 z M 79.268098,235.49856 C 61.990771,209.90753 47.141524,187.04614 46.236843,184.74284 c 0,0 0,0 0,-2.65165 0,-3.32236 0,-3.32236 0,-3.32236 1.325826,-3.03121 13.720995,-19.71061 27.509581,-37.09192 13.819782,-17.36572 27.317206,-32.63611 30.015656,-33.95154 2.68804,-1.29983 36.02606,11.87524 67.6015,26.28254 l 4.93415,2.26691 c 31.57545,14.4333 56.94811,26.97405 56.39178,27.87353 -0.56672,0.89948 -15.32758,28.31027 -31.70542,58.93945 l -27.76955,51.88397 C 156.83669,305.59574 96.540226,261.11559 79.268098,235.49856 Z M 892.28514,472.60297 c 0.37955,8.46449 -4.07106,43.41429 -9.8579,77.66218 l -12.41077,73.08159 c -5.78684,34.2167 -12.62394,65.75575 -15.2236,70.04518 -2.53726,4.28424 -31.78342,14.60488 -56.86492,20.91165 -25.11269,6.30677 -44.8077,7.34144 -43.84583,2.3397 0.96188,-5.03814 -13.58581,-40.2895 -32.34494,-67.61191 -18.79033,-27.30161 -34.13871,-48.86317 -34.11271,-47.9117 0.026,0.94628 4.30503,23.37613 9.1092,47.67773 4.78857,24.3328 8.27731,50.30338 7.76258,57.72281 -0.53033,7.42462 -9.00002,24.61356 -11.76086,28.47145 -2.78683,3.85269 -15.27559,21.16642 -27.79034,38.46974 -12.51995,17.31372 -37.53386,52.03476 -55.66388,77.13705 -18.10402,25.0919 -37.2323,48.86837 -42.51481,52.77826 -5.2773,3.90469 -34.67943,7.12826 -54.76959,7.12826 -20.04856,0 -41.59973,-1.62738 -47.8701,-3.61872 -6.23918,-1.98094 -31.45586,-31.38307 -49.74186,-56.72974 -18.29639,-25.35186 -43.45588,-60.21328 -55.89265,-77.46981 -12.46276,-17.25653 -24.78513,-34.35708 -27.46278,-38.02779 -2.62046,-3.66552 -6.94629,-12.36918 -9.57714,-19.32066 -2.61526,-6.96709 1.05546,-42.20805 5.82843,-66.54085 4.79377,-24.3016 8.81284,-44.97408 8.94802,-45.95675 0.14038,-0.97228 -15.13521,18.88391 -33.92033,46.19592 -18.79033,27.3276 -33.86315,53.68294 -33.52519,58.58589 0.32235,4.90816 -17.68288,12.65514 -42.74358,6.43156 -25.0555,-6.21319 -48.89957,-13.66901 -52.96543,-16.53383 -4.06067,-2.86482 -13.28426,-39.95154 -19.09709,-74.16824 L 141.5975,550.27035 c -5.80244,-34.24789 -10.23745,-69.19769 -9.8631,-77.66218 0.37955,-8.50088 9.70712,-32.35014 14.30331,-40.89262 4.565,-8.55808 21.73834,-40.62226 38.12139,-71.23583 l 60.90999,-113.80783 c 16.37264,-30.59797 33.89434,-59.88572 38.93247,-65.10063 5.04334,-5.19932 18.86832,-11.67247 19.50264,-11.81805 0.65511,-0.14558 28.8406,-6.62913 62.68815,-14.38131 l 62.51658,-14.36571 c 33.81635,-7.77297 69.46806,-14.76085 79.19078,-15.54075 9.72792,-0.7747 57.85279,7.99135 91.67954,15.88911 l 58.30513,13.61701 c 33.81635,7.90816 61.99144,14.50089 62.59976,14.65687 0.61872,0.12998 6.32757,3.13519 12.67593,6.65512 6.35877,3.52514 29.41773,39.77997 45.80078,70.38314 l 60.91519,113.80783 c 16.36744,30.60837 33.55118,62.67256 38.12138,71.23583 4.5858,8.54248 13.93417,32.39174 14.28772,40.89262 z m 85.50795,-287.86013 c -0.90468,2.3033 -15.79032,25.16469 -33.04165,50.75572 -17.25133,25.61703 -77.5478,70.09718 -93.91525,39.47321 L 823.04585,223.0878 c -16.40384,-30.62918 -30.21323,-56.41258 -30.71756,-57.31206 -0.53553,-0.89429 23.83886,-15.06762 55.41431,-29.50092 l 4.91335,-2.26691 c 31.55985,-14.4073 60.33807,-26.28254 63.93079,-26.39172 3.59273,-0.078 19.88219,16.695 33.68637,34.06072 13.76779,17.38131 26.18376,34.06071 27.51998,37.09192 0,0 0,0 0,3.32236 0,2.65165 0,2.65165 0,2.65165 z"
             ns2:knockout="Off"
             inkscape:connector-curvature="0" /><path
             style="fill:#2f3536;fill-opacity:1;stroke-width:11.5754"
             id="path293"
             d="m 423.77478,650.70034 c -7.45062,-14.92204 0.0832,-27.16643 16.79899,-27.16643 h 142.8668 c 16.68981,0 24.24441,12.24439 16.80419,27.16643 l -74.66218,84.87883 c -7.47141,14.93244 -19.65341,14.93244 -27.14563,0 z"
             ns2:knockout="Off"
             inkscape:connector-curvature="0" /><path
             style="fill:#2f3536;fill-opacity:1;stroke-width:11.5754"
             id="path294"
             d="m 512.00717,832.72839 c 0.0208,0 10.08667,9.22879 22.42465,20.50091 l 48.51482,44.33976 c 12.35877,11.24612 25.8406,12.37438 29.96885,2.45928 4.13346,-9.9099 -3.7487,-25.69502 -17.55289,-35.11098 l -45.95155,-31.34148 c -13.79899,-9.41596 -25.05551,-17.42291 -25.00351,-17.79726 0.0416,-0.35355 0.10398,-15.05722 0.10398,-31.76262 v -85.58594 c 0,-16.7054 -2.51647,-36.00526 -5.59966,-42.87876 0,0 0,0 -6.90469,0 -6.89429,0 -6.89429,0 -6.89429,0 -3.0832,6.8735 -5.59967,26.16816 -5.59967,42.87876 V 784.016 c 0,16.7054 0.0312,30.69156 0.0468,31.08671 0.0364,0.36395 -11.13694,9.05721 -24.94632,18.47317 l -45.95156,31.34148 c -13.79378,9.41596 -21.71234,25.20108 -17.55809,35.11098 4.15946,9.92029 17.61009,8.78684 29.96366,-2.45928 l 48.52522,-44.33976 c 12.33797,-11.27212 22.41425,-20.50091 22.41425,-20.50091 z"
             ns2:knockout="Off"
             inkscape:connector-curvature="0" /><g
             transform="matrix(5.199316,0,0,5.199316,-1037.3838,-846.38031)"
             id="g296"
             style="fill:#2f3536;fill-opacity:1;stroke-width:2.22631"><path
               id="path295"
               d="m 246.885,244.751 c -3.453,0.1 -3.48,0.578 -0.063,1.067 l 28.657,4.092 c 3.413,0.489 5.948,3.696 5.627,7.127 l -3.658,12.79 c -0.309,3.431 0.762,6.337 2.396,6.457 1.634,0.12 2.98,0.104 2.99,-0.036 0.005,-0.137 0.14,-3.068 0.284,-6.513 l 2.993,-12.004 c 0.15,-3.446 0.345,-8.027 0.438,-10.181 0.099,-2.154 -0.813,-3.892 -2.019,-3.856 -1.206,0.035 -5.015,0.139 -8.463,0.237 z"
               ns2:knockout="Off"
               inkscape:connector-curvature="0"
               style="fill:#2f3536;fill-opacity:1;stroke-width:2.22631" /><path
               id="path296"
               d="m 319.935,243.932 c -3.449,-0.098 -7.259,-0.202 -8.458,-0.237 -1.212,-0.036 -2.124,1.702 -2.032,3.856 0.093,2.154 0.294,6.735 0.442,10.181 l 2.99,12.004 c 0.15,3.444 0.279,6.375 0.295,6.513 0.006,0.14 1.35,0.155 2.983,0.036 1.635,-0.119 2.71,-3.025 2.39,-6.457 l -3.652,-12.79 c -0.317,-3.431 2.216,-6.638 5.627,-7.127 l 28.657,-4.092 c 3.411,-0.489 3.391,-0.967 -0.062,-1.067 z"
               ns2:knockout="Off"
               inkscape:connector-curvature="0"
               style="fill:#2f3536;fill-opacity:1;stroke-width:2.22631" /></g><g
             transform="matrix(5.199316,0,0,5.199316,-1037.3838,-846.38031)"
             id="g297"
             style="fill:#2f3536;fill-opacity:1;stroke-width:2.22631"><circle
               id="circle296"
               r="3.974"
               cy="249.082"
               cx="268.66599"
               ns2:knockout="Off"
               style="fill:#2f3536;fill-opacity:1;stroke-width:2.22631" /><path
               id="path297"
               d="m 331.314,249.082 c 0,2.199 -1.786,3.978 -3.979,3.978 -2.202,0 -3.98,-1.779 -3.98,-3.978 0,-2.195 1.778,-3.974 3.98,-3.974 2.193,-0.001 3.979,1.779 3.979,3.974 z"
               ns2:knockout="Off"
               inkscape:connector-curvature="0"
               style="fill:#2f3536;fill-opacity:1;stroke-width:2.22631" /></g><g
             transform="matrix(5.199316,0,0,5.199316,-1037.3838,-846.38031)"
             id="g313"
             style="fill:#2f3536;fill-opacity:1;stroke-width:2.22631"><g
               id="g305"
               style="fill:#2f3536;fill-opacity:1;stroke-width:2.22631"><g
                 id="g300"
                 ns2:knockout="Off"
                 style="fill:#2f3536;fill-opacity:1;stroke-width:2.22631"><g
                   id="g299"
                   style="fill:#2f3536;fill-opacity:1;stroke-width:2.22631"><path
                     id="path298"
                     d="m 282.442,299.431 c -22.72,6.003 -41.634,16.871 -60.114,31.306"
                     ns2:knockout="Off"
                     style="fill:#2f3536;fill-opacity:1;stroke-width:2.22631"
                     inkscape:connector-curvature="0" /><path
                     id="path299"
                     d="m 282.2,298.054 c -21.88,5.292 -43.854,16.737 -60.637,31.78 -1.164,1.042 0.289,2.639 1.532,1.807 9.16,-6.125 17.966,-12.6 27.651,-17.915 10.139,-5.564 20.881,-9.605 31.939,-12.917 1.686,-0.505 1.297,-3.186 -0.485,-2.755 z"
                     ns2:knockout="Off"
                     inkscape:connector-curvature="0"
                     style="fill:#2f3536;fill-opacity:1;stroke-width:2.22631" /></g></g><g
                 id="g302"
                 ns2:knockout="Off"
                 style="fill:#2f3536;fill-opacity:1;stroke-width:2.22631"><g
                   id="g301"
                   style="fill:#2f3536;fill-opacity:1;stroke-width:2.22631"><path
                     id="path300"
                     d="m 282.968,306.988 c -16.705,1.636 -33.563,20.751 -43.912,33.257"
                     ns2:knockout="Off"
                     style="fill:#2f3536;fill-opacity:1;stroke-width:2.22631"
                     inkscape:connector-curvature="0" /><path
                     id="path301"
                     d="m 282.77,305.868 c -9.444,0.723 -17.431,6.122 -24.537,12.016 -7.479,6.204 -14.603,13.695 -20.01,21.778 -0.624,0.933 0.641,2.192 1.491,1.359 12.808,-12.552 24.483,-29.631 43.451,-32.913 1.472,-0.254 1.04,-2.351 -0.395,-2.24 z"
                     ns2:knockout="Off"
                     inkscape:connector-curvature="0"
                     style="fill:#2f3536;fill-opacity:1;stroke-width:2.22631" /></g></g><g
                 id="g304"
                 ns2:knockout="Off"
                 style="fill:#2f3536;fill-opacity:1;stroke-width:2.22631"><g
                   id="g303"
                   style="fill:#2f3536;fill-opacity:1;stroke-width:2.22631"><path
                     id="path302"
                     d="m 284.562,314.588 c -16.175,4.496 -29.483,26.229 -37.521,40.328"
                     ns2:knockout="Off"
                     style="fill:#2f3536;fill-opacity:1;stroke-width:2.22631"
                     inkscape:connector-curvature="0" /><path
                     id="path303"
                     d="m 284.364,313.467 c -8.867,2.251 -15.541,8.416 -21.442,15.134 -6.738,7.671 -12.65,16.651 -16.835,25.961 -0.484,1.078 1.134,1.858 1.787,0.937 10.368,-14.624 19.083,-33.416 37.176,-39.883 1.208,-0.432 0.551,-2.463 -0.686,-2.149 z"
                     ns2:knockout="Off"
                     inkscape:connector-curvature="0"
                     style="fill:#2f3536;fill-opacity:1;stroke-width:2.22631" /></g></g></g><g
               id="g312"
               style="fill:#2f3536;fill-opacity:1;stroke-width:2.22631"><g
                 id="g307"
                 ns2:knockout="Off"
                 style="fill:#2f3536;fill-opacity:1;stroke-width:2.22631"><g
                   id="g306"
                   style="fill:#2f3536;fill-opacity:1;stroke-width:2.22631"><path
                     id="path305"
                     d="m 313.56,299.431 c 22.718,6.003 41.628,16.871 60.104,31.306"
                     ns2:knockout="Off"
                     style="fill:#2f3536;fill-opacity:1;stroke-width:2.22631"
                     inkscape:connector-curvature="0" /><path
                     id="path306"
                     d="m 313.074,300.743 c 11.08,3.32 21.741,7.38 31.951,12.85 9.841,5.271 18.705,11.93 27.959,18.114 1.305,0.872 2.469,-0.947 1.359,-1.94 -16.666,-14.924 -38.57,-26.389 -60.299,-31.647 -1.712,-0.415 -2.727,2.097 -0.97,2.623 z"
                     ns2:knockout="Off"
                     inkscape:connector-curvature="0"
                     style="fill:#2f3536;fill-opacity:1;stroke-width:2.22631" /></g></g><g
                 id="g309"
                 ns2:knockout="Off"
                 style="fill:#2f3536;fill-opacity:1;stroke-width:2.22631"><g
                   id="g308"
                   style="fill:#2f3536;fill-opacity:1;stroke-width:2.22631"><path
                     id="path307"
                     d="m 313.03,306.988 c 16.707,1.636 33.564,20.751 43.913,33.257"
                     ns2:knockout="Off"
                     style="fill:#2f3536;fill-opacity:1;stroke-width:2.22631"
                     inkscape:connector-curvature="0" /><path
                     id="path308"
                     d="m 312.923,308.121 c 18.863,3.261 30.51,20.297 43.245,32.782 0.946,0.928 2.279,-0.229 1.551,-1.316 -5.477,-8.176 -12.608,-15.396 -20.064,-21.789 -6.961,-5.969 -15.178,-11.229 -24.517,-11.942 -1.482,-0.114 -1.644,2.018 -0.215,2.265 z"
                     ns2:knockout="Off"
                     inkscape:connector-curvature="0"
                     style="fill:#2f3536;fill-opacity:1;stroke-width:2.22631" /></g></g><g
                 id="g311"
                 ns2:knockout="Off"
                 style="fill:#2f3536;fill-opacity:1;stroke-width:2.22631"><g
                   id="g310"
                   style="fill:#2f3536;fill-opacity:1;stroke-width:2.22631"><path
                     id="path309"
                     d="m 311.435,314.588 c 16.172,4.496 29.49,26.229 37.524,40.328"
                     ns2:knockout="Off"
                     style="fill:#2f3536;fill-opacity:1;stroke-width:2.22631"
                     inkscape:connector-curvature="0" /><path
                     id="path310"
                     d="m 311.04,315.655 c 18.046,6.457 26.813,25.33 37.144,39.919 0.686,0.968 2.152,-0.075 1.694,-1.095 -4.017,-8.945 -9.716,-17.315 -15.94,-24.875 -5.824,-7.073 -13.024,-13.776 -22.108,-16.083 -1.392,-0.354 -2.199,1.63 -0.79,2.134 z"
                     ns2:knockout="Off"
                     inkscape:connector-curvature="0"
                     style="fill:#2f3536;fill-opacity:1;stroke-width:2.22631" /></g></g></g></g><g
             transform="matrix(5.199316,0,0,5.199316,-1037.3838,-846.38031)"
             id="g319"
             style="fill:#2f3536;fill-opacity:1;stroke-width:2.22631"><g
               id="g315"
               style="fill:#2f3536;fill-opacity:1;stroke-width:2.22631"><ellipse
                 id="ellipse313"
                 ry="8.0299997"
                 rx="6.4250002"
                 cy="205.96201"
                 cx="260.37"
                 ns2:knockout="Off"
                 style="fill:#2f3536;fill-opacity:1;stroke-width:2.22631" /><path
                 id="path313"
                 d="m 258.13,221.388 c 0,2.959 -2.396,5.353 -5.349,5.353 -2.959,0 -5.355,-2.394 -5.355,-5.353 0,-2.956 2.396,-5.353 5.355,-5.353 2.953,0.001 5.349,2.397 5.349,5.353 z"
                 ns2:knockout="Off"
                 inkscape:connector-curvature="0"
                 style="fill:#2f3536;fill-opacity:1;stroke-width:2.22631" /><path
                 id="path314"
                 d="m 282.519,203.942 c -1.077,3.381 -3.318,5.69 -5.011,5.152 -1.688,-0.539 -2.19,-3.713 -1.111,-7.096 1.072,-3.382 3.314,-5.688 5.003,-5.148 1.691,0.537 2.191,3.716 1.119,7.092 z"
                 ns2:knockout="Off"
                 inkscape:connector-curvature="0"
                 style="fill:#2f3536;fill-opacity:1;stroke-width:2.22631" /><path
                 id="path315"
                 d="m 274.432,223.038 c 0,1.778 -1.674,3.214 -3.748,3.214 -2.069,0 -3.746,-1.436 -3.746,-3.214 0,-1.774 1.676,-3.211 3.746,-3.211 2.074,0 3.748,1.437 3.748,3.211 z"
                 ns2:knockout="Off"
                 inkscape:connector-curvature="0"
                 style="fill:#2f3536;fill-opacity:1;stroke-width:2.22631" /></g><g
               id="g318"
               style="fill:#2f3536;fill-opacity:1;stroke-width:2.22631"><path
                 id="path316"
                 d="m 353.42,284.343 c -1.319,2.646 -0.248,5.858 2.4,7.178 2.646,1.321 5.86,0.247 7.179,-2.398 1.32,-2.649 0.242,-5.866 -2.401,-7.179 -2.643,-1.325 -5.859,-0.248 -7.178,2.399 z"
                 ns2:knockout="Off"
                 inkscape:connector-curvature="0"
                 style="fill:#2f3536;fill-opacity:1;stroke-width:2.22631" /><path
                 id="path317"
                 d="m 354.672,270.667 c -0.546,3.506 0.429,6.572 2.179,6.845 1.759,0.272 3.618,-2.346 4.172,-5.85 0.546,-3.506 -0.429,-6.571 -2.188,-6.842 -1.748,-0.276 -3.616,2.342 -4.163,5.847 z"
                 ns2:knockout="Off"
                 inkscape:connector-curvature="0"
                 style="fill:#2f3536;fill-opacity:1;stroke-width:2.22631" /><path
                 id="path318"
                 d="m 344.822,278.809 c -0.794,1.588 0.067,3.625 1.917,4.547 1.854,0.925 4,0.387 4.787,-1.2 0.796,-1.588 -0.066,-3.624 -1.916,-4.546 -1.851,-0.926 -3.999,-0.387 -4.788,1.199 z"
                 ns2:knockout="Off"
                 inkscape:connector-curvature="0"
                 style="fill:#2f3536;fill-opacity:1;stroke-width:2.22631" /></g></g></g></g><g
         style="fill:#1f1f1f"
         id="g340"
         transform="matrix(-0.00651472,0,0,-0.00651472,16.156672,7.7246021)"><path
           d="m 760,-120 q -39,0 -70,-22.5 Q 659,-165 647,-200 H 440 q -66,0 -113,-47 -47,-47 -47,-113 0,-66 47,-113 47,-47 113,-47 h 80 q 33,0 56.5,-23.5 Q 600,-567 600,-600 600,-633 576.5,-656.5 553,-680 520,-680 H 313 q -13,35 -43.5,57.5 -30.5,22.5 -69.5,22.5 -50,0 -85,-35 -35,-35 -35,-85 0,-50 35,-85 35,-35 85,-35 39,0 69.5,22.5 30.5,22.5 43.5,57.5 h 207 q 66,0 113,47 47,47 47,113 0,66 -47,113 -47,47 -113,47 h -80 q -33,0 -56.5,23.5 -23.5,23.5 -23.5,56.5 0,33 23.5,56.5 23.5,23.5 56.5,23.5 h 207 q 13,-35 43.5,-57.5 30.5,-22.5 69.5,-22.5 50,0 85,35 35,35 35,85 0,50 -35,85 -35,35 -85,35 z M 200,-680 q 17,0 28.5,-11.5 Q 240,-703 240,-720 240,-737 228.5,-748.5 217,-760 200,-760 q -17,0 -28.5,11.5 -11.5,11.5 -11.5,28.5 0,17 11.5,28.5 11.5,11.5 28.5,11.5 z"
           id="path331" /></g><g
         id="g411"
         style="fill:#ed6b6b;fill-opacity:1"><rect
           style="fill:#ed6b6b;fill-opacity:1;stroke-width:0.151843"
           id="rect405"
           width="2.1551809"
           height="0.53638679"
           x="1.5569965"
           y="15.992109"
           ry="0.19006312"
           transform="rotate(-46.350718)" /><rect
           style="fill:#ed6b6b;fill-opacity:1;stroke-width:0.151843"
           id="rect407"
           width="2.1551809"
           height="0.53638679"
           x="-17.19565"
           y="-3.6662247"
           ry="0.19006312"
           transform="matrix(-0.69024217,-0.72357843,-0.72357843,0.69024217,0,0)" /></g></g></g></svg>
