<?xml version="1.0" encoding="UTF-8" standalone="no"?>
<svg
   id="Layer_1"
   data-name="Layer 1"
   viewBox="0 0 64 64"
   version="1.1"
   sodipodi:docname="pardus-update-inprogress-symbolic.svg"
   inkscape:version="1.3 (0e150ed6c4, 2023-07-21)"
   xmlns:inkscape="http://www.inkscape.org/namespaces/inkscape"
   xmlns:sodipodi="http://sodipodi.sourceforge.net/DTD/sodipodi-0.dtd"
   xmlns="http://www.w3.org/2000/svg"
   xmlns:svg="http://www.w3.org/2000/svg"
   xmlns:rdf="http://www.w3.org/1999/02/22-rdf-syntax-ns#"
   xmlns:cc="http://creativecommons.org/ns#"
   xmlns:dc="http://purl.org/dc/elements/1.1/">
  <metadata
     id="metadata11">
    <rdf:RDF>
      <cc:Work
         rdf:about="">
        <dc:format>image/svg+xml</dc:format>
        <dc:type
           rdf:resource="http://purl.org/dc/dcmitype/StillImage" />
      </cc:Work>
    </rdf:RDF>
  </metadata>
  <sodipodi:namedview
     id="namedview4"
     pagecolor="#ffffff"
     bordercolor="#000000"
     borderopacity="0.25"
     inkscape:showpageshadow="2"
     inkscape:pageopacity="0.0"
     inkscape:pagecheckerboard="0"
     inkscape:deskcolor="#d1d1d1"
     inkscape:zoom="2.8284271"
     inkscape:cx="80.433396"
     inkscape:cy="42.956737"
     inkscape:window-width="1920"
     inkscape:window-height="1137"
     inkscape:window-x="0"
     inkscape:window-y="0"
     inkscape:window-maximized="1"
     inkscape:current-layer="Layer_1"
     inkscape:document-rotation="0"
     showgrid="false" />
  <defs
     id="defs1">
    <style
       id="style1">.cls-1{fill:#2e3436;}.cls-2{fill:#929495;}</style>
  </defs>
  <g
     id="g231">
    <path
       class="cls-1"
       d="m 54.69909,50.649999 h -45.4 a 6.1,6.1 0 0 1 -6.1,-6.2 v -33 a 6.1,6.1 0 0 1 6.1,-6.2 h 15.5 a 1.9,1.9 0 0 1 1.9,1.9 1.9,1.9 0 0 1 -1.9,2 h -15.5 a 2.2,2.2 0 0 0 -2.2,2.3 v 33 a 2.2,2.2 0 0 0 2.2,2.2 h 45.4 a 2.2,2.2 0 0 0 2.2,-2.2 v -9.5 a 2,2 0 0 1 2,-2 1.9,1.9 0 0 1 1.9,2 v 9.5 a 6.1,6.1 0 0 1 -6.1,6.2 z"
       id="path177"
       style="fill:#2f3537;fill-opacity:1" />
    <path
       class="cls-1"
       d="m 45.29909,58.749999 h -26.6 a 1.9,1.9 0 0 1 -1.9,-2 1.9,1.9 0 0 1 1.9,-1.9 h 26.6 a 1.9,1.9 0 0 1 1.9,1.9 1.9,1.9 0 0 1 -1.9,2 z"
       id="path178"
       style="fill:#2f3537;fill-opacity:1" />
    <rect
       class="cls-2"
       x="10.499086"
       y="12.850002"
       width="43.299999"
       height="30.35"
       rx="2"
       id="rect178"
       style="opacity:0.5;fill:#b5b5b5;fill-opacity:1" />
    <g
       id="g217"
       style="fill:#2f3537;fill-opacity:1">
      <g
         id="g209"
         style="fill:#2f3537;fill-opacity:1">
        <path
           class="cls-1"
           d="m 45.246973,14.794983 9.60459,-0.011 c 0.43554,-0.002 1.35687,0.95604 1.33395,2.04419 0,1.04934 -0.64937,1.92304 -1.06879,1.9221 l -9.8587,-0.0221 c -0.41943,-9.4e-4 -1.22348,-0.85065 -1.22348,-1.9 -0.0229,-1.08816 0.77689,-2.03466 1.21243,-2.03315 z"
           id="path231"
           style="fill:#2f3537;fill-opacity:1;stroke-width:0.632221"
           sodipodi:nodetypes="cccsscc" />
        <g
           id="g206"
           style="fill:#2f3537;fill-opacity:1">
          <path
             style="color:#000000;fill:#2f3537;fill-opacity:1;stroke-linecap:round;stroke-linejoin:round;-inkscape-stroke:none"
             d="m 29.69982,17.12873 h 4.04883 c 1.23155,-3.5524 4.59303,-6.08398 8.58008,-6.08398 3.98705,0 7.34853,2.53158 8.58008,6.08398 h 4.04883 C 53.5957,11.41844 48.44401,7.14435 42.32873,7.14435 c -6.11523,0 -11.26691,4.27417 -12.62891,9.98438 z"
             id="path230" />
          <path
             d="m 30.77396,18.72167 a 1.9,1.9 0 0 0 0.0981,0.0437 1.9,1.9 0 0 0 2.52693,-0.91519 l 0.45055,-0.96225 -3.53233,-1.65398 -0.45056,0.96225 a 1.9,1.9 0 0 0 0.90729,2.52539 z"
             id="path229"
             style="fill:#2f3537;fill-opacity:1" />
          <path
             class="cls-1"
             d="m 56.157261,7.5066806 0.011,9.6045904 c 0.002,0.43554 -0.95604,1.35687 -2.04419,1.33395 -1.04934,0 -1.92304,-0.64937 -1.9221,-1.06879 l 0.0221,-9.8587004 c 9.4e-4,-0.41943 0.85065,-1.22348 1.9,-1.22348 1.08816,-0.0229 2.03466,0.77689 2.03315,1.21243 z"
             id="path228"
             style="fill:#2f3537;fill-opacity:1;stroke-width:0.632221"
             sodipodi:nodetypes="cccsscc" />
        </g>
        <g
           id="g208"
           style="fill:#2f3537;fill-opacity:1">
          <path
             style="color:#000000;fill:#2f3537;fill-opacity:1;stroke-linecap:round;stroke-linejoin:round;-inkscape-stroke:none"
             d="m 29.69982,17.12873 h 4.04883 c 1.23155,-3.5524 4.59303,-6.08398 8.58008,-6.08398 3.98705,0 7.34853,2.53158 8.58008,6.08398 h 4.04883 C 53.5957,11.41844 48.44401,7.14435 42.32873,7.14435 c -6.11523,0 -11.26691,4.27417 -12.62891,9.98438 z"
             id="path227" />
          <path
             d="m 30.77396,18.72167 a 1.9,1.9 0 0 0 0.0981,0.0437 1.9,1.9 0 0 0 2.52693,-0.91519 l 0.45055,-0.96225 -3.53233,-1.65398 -0.45056,0.96225 a 1.9,1.9 0 0 0 0.90729,2.52539 z"
             id="path226"
             style="fill:#2f3537;fill-opacity:1" />
          <path
             class="cls-1"
             d="m 56.157261,7.5066806 0.011,9.6045904 c 0.002,0.43554 -0.95604,1.35687 -2.04419,1.33395 -1.04934,0 -1.92304,-0.64937 -1.9221,-1.06879 l 0.0221,-9.8587004 c 9.4e-4,-0.41943 0.85065,-1.22348 1.9,-1.22348 1.08816,-0.0229 2.03466,0.77689 2.03315,1.21243 z"
             id="path225"
             style="fill:#2f3537;fill-opacity:1;stroke-width:0.632221"
             sodipodi:nodetypes="cccsscc" />
        </g>
      </g>
    </g>
    <g
       id="g216"
       transform="rotate(180,42.92052,20.150548)"
       style="fill:#2f3537;fill-opacity:1">
      <path
         class="cls-1"
         d="m 45.246973,14.794983 9.60459,-0.011 c 0.43554,-0.002 1.35687,0.95604 1.33395,2.04419 0,1.04934 -0.64937,1.92304 -1.06879,1.9221 l -9.8587,-0.0221 c -0.41943,-9.4e-4 -1.22348,-0.85065 -1.22348,-1.9 -0.0229,-1.08816 0.77689,-2.03466 1.21243,-2.03315 z"
         id="path224"
         style="fill:#2f3537;fill-opacity:1;stroke-width:0.632221"
         sodipodi:nodetypes="cccsscc" />
      <g
         id="g212"
         style="fill:#2f3537;fill-opacity:1">
        <path
           style="color:#000000;fill:#2f3537;fill-opacity:1;stroke-linecap:round;stroke-linejoin:round;-inkscape-stroke:none"
           d="m 29.69982,17.12873 h 4.04883 c 1.23155,-3.5524 4.59303,-6.08398 8.58008,-6.08398 3.98705,0 7.34853,2.53158 8.58008,6.08398 h 4.04883 C 53.5957,11.41844 48.44401,7.14435 42.32873,7.14435 c -6.11523,0 -11.26691,4.27417 -12.62891,9.98438 z"
           id="path223" />
        <path
           d="m 30.77396,18.72167 a 1.9,1.9 0 0 0 0.0981,0.0437 1.9,1.9 0 0 0 2.52693,-0.91519 l 0.45055,-0.96225 -3.53233,-1.65398 -0.45056,0.96225 a 1.9,1.9 0 0 0 0.90729,2.52539 z"
           id="path222"
           style="fill:#2f3537;fill-opacity:1" />
        <path
           class="cls-1"
           d="m 56.157261,7.5066806 0.011,9.6045904 c 0.002,0.43554 -0.95604,1.35687 -2.04419,1.33395 -1.04934,0 -1.92304,-0.64937 -1.9221,-1.06879 l 0.0221,-9.8587004 c 9.4e-4,-0.41943 0.85065,-1.22348 1.9,-1.22348 1.08816,-0.0229 2.03466,0.77689 2.03315,1.21243 z"
           id="path221"
           style="fill:#2f3537;fill-opacity:1;stroke-width:0.632221"
           sodipodi:nodetypes="cccsscc" />
      </g>
      <g
         id="g215"
         style="fill:#2f3537;fill-opacity:1">
        <path
           style="color:#000000;fill:#2f3537;fill-opacity:1;stroke-linecap:round;stroke-linejoin:round;-inkscape-stroke:none"
           d="m 29.69982,17.12873 h 4.04883 c 1.23155,-3.5524 4.59303,-6.08398 8.58008,-6.08398 3.98705,0 7.34853,2.53158 8.58008,6.08398 h 4.04883 C 53.5957,11.41844 48.44401,7.14435 42.32873,7.14435 c -6.11523,0 -11.26691,4.27417 -12.62891,9.98438 z"
           id="path220" />
        <path
           d="m 30.77396,18.72167 a 1.9,1.9 0 0 0 0.0981,0.0437 1.9,1.9 0 0 0 2.52693,-0.91519 l 0.45055,-0.96225 -3.53233,-1.65398 -0.45056,0.96225 a 1.9,1.9 0 0 0 0.90729,2.52539 z"
           id="path219"
           style="fill:#2f3537;fill-opacity:1" />
        <path
           class="cls-1"
           d="m 56.157261,7.5066806 0.011,9.6045904 c 0.002,0.43554 -0.95604,1.35687 -2.04419,1.33395 -1.04934,0 -1.92304,-0.64937 -1.9221,-1.06879 l 0.0221,-9.8587004 c 9.4e-4,-0.41943 0.85065,-1.22348 1.9,-1.22348 1.08816,-0.0229 2.03466,0.77689 2.03315,1.21243 z"
           id="path218"
           style="fill:#2f3537;fill-opacity:1;stroke-width:0.632221"
           sodipodi:nodetypes="cccsscc" />
      </g>
    </g>
  </g>
</svg>
